<svg width="114" height="114" viewBox="0 0 114 114" fill="none" xmlns="http://www.w3.org/2000/svg">
<g filter="url(#filter0_dd_1_12)">
<path d="M12 46.8C12 22.0576 32.0576 2 56.8 2C81.5424 2 101.6 22.0576 101.6 46.8C101.6 71.5424 81.5424 91.6 56.8 91.6C32.0576 91.6 12 71.5424 12 46.8Z" fill="#1E1E1E"/>
<path d="M45.1532 44.1473H41.187C41.1145 43.6341 40.9666 43.1783 40.7433 42.7799C40.5199 42.3754 40.2331 42.0313 39.883 41.7476C39.5328 41.4639 39.1284 41.2465 38.6696 41.0956C38.2168 40.9447 37.7248 40.8692 37.1935 40.8692C36.2337 40.8692 35.3976 41.1077 34.6852 41.5846C33.9728 42.0555 33.4205 42.7437 33.0281 43.6492C32.6357 44.5487 32.4395 45.6414 32.4395 46.9273C32.4395 48.2494 32.6357 49.3602 33.0281 50.2597C33.4265 51.1592 33.9819 51.8383 34.6942 52.2971C35.4066 52.7559 36.2306 52.9853 37.1664 52.9853C37.6916 52.9853 38.1776 52.9159 38.6243 52.7771C39.0771 52.6382 39.4785 52.436 39.8287 52.1704C40.1788 51.8987 40.4686 51.5697 40.698 51.1833C40.9334 50.797 41.0964 50.3563 41.187 49.8612L45.1532 49.8793C45.0506 50.7306 44.794 51.5516 44.3835 52.3424C43.9791 53.1272 43.4327 53.8305 42.7445 54.4523C42.0623 55.0681 41.2473 55.5571 40.2995 55.9193C39.3578 56.2755 38.2923 56.4536 37.103 56.4536C35.4489 56.4536 33.9698 56.0793 32.6658 55.3307C31.3679 54.5821 30.3416 53.4985 29.587 52.0798C28.8384 50.6611 28.4641 48.9436 28.4641 46.9273C28.4641 44.9049 28.8445 43.1844 29.6051 41.7657C30.3658 40.347 31.3981 39.2664 32.7021 38.5239C34.006 37.7753 35.473 37.401 37.103 37.401C38.1776 37.401 39.1737 37.5519 40.0913 37.8538C41.0149 38.1556 41.8329 38.5963 42.5453 39.1759C43.2576 39.7494 43.8372 40.4527 44.2839 41.2858C44.7367 42.1189 45.0265 43.0727 45.1532 44.1473ZM47.9649 56.2V37.6546H55.2817C56.6823 37.6546 57.8776 37.9051 58.8676 38.4062C59.8637 38.9012 60.6214 39.6045 61.1405 40.5161C61.6658 41.4216 61.9284 42.4871 61.9284 43.7126C61.9284 44.9442 61.6627 46.0036 61.1315 46.8911C60.6002 47.7725 59.8305 48.4486 58.8224 48.9195C57.8202 49.3904 56.6068 49.6258 55.1821 49.6258H50.2831V46.4745H54.5482C55.2968 46.4745 55.9186 46.3719 56.4136 46.1666C56.9086 45.9614 57.2769 45.6535 57.5184 45.243C57.7659 44.8325 57.8897 44.3223 57.8897 43.7126C57.8897 43.0969 57.7659 42.5777 57.5184 42.1551C57.2769 41.7325 56.9056 41.4125 56.4046 41.1952C55.9095 40.9719 55.2847 40.8602 54.5301 40.8602H51.8859V56.2H47.9649ZM57.9802 47.7604L62.5894 56.2H58.2609L53.7513 47.7604H57.9802ZM64.6993 37.6546H69.5349L74.6421 50.1148H74.8595L79.9667 37.6546H84.8023V56.2H80.999V44.1292H80.8451L76.0457 56.1095H73.4559L68.6565 44.0839H68.5026V56.2H64.6993V37.6546Z" fill="#FFD700"/>
</g>
<defs>
<filter id="filter0_dd_1_12" x="0" y="0" width="113.6" height="113.6" filterUnits="userSpaceOnUse" color-interpolation-filters="sRGB">
<feFlood flood-opacity="0" result="BackgroundImageFix"/>
<feColorMatrix in="SourceAlpha" type="matrix" values="0 0 0 0 0 0 0 0 0 0 0 0 0 0 0 0 0 0 127 0" result="hardAlpha"/>
<feMorphology radius="3" operator="erode" in="SourceAlpha" result="effect1_dropShadow_1_12"/>
<feOffset dy="10"/>
<feGaussianBlur stdDeviation="7.5"/>
<feColorMatrix type="matrix" values="0 0 0 0 0 0 0 0 0 0 0 0 0 0 0 0 0 0 0.3 0"/>
<feBlend mode="normal" in2="BackgroundImageFix" result="effect1_dropShadow_1_12"/>
<feColorMatrix in="SourceAlpha" type="matrix" values="0 0 0 0 0 0 0 0 0 0 0 0 0 0 0 0 0 0 127 0" result="hardAlpha"/>
<feMorphology radius="4" operator="erode" in="SourceAlpha" result="effect2_dropShadow_1_12"/>
<feOffset dy="4"/>
<feGaussianBlur stdDeviation="3"/>
<feColorMatrix type="matrix" values="0 0 0 0 0 0 0 0 0 0 0 0 0 0 0 0 0 0 0.3 0"/>
<feBlend mode="normal" in2="effect1_dropShadow_1_12" result="effect2_dropShadow_1_12"/>
<feBlend mode="normal" in="SourceGraphic" in2="effect2_dropShadow_1_12" result="shape"/>
</filter>
</defs>
</svg>
